<?xml version="1.0" standalone="no"?>
<!DOCTYPE svg PUBLIC "-//W3C//DTD SVG 20010904//EN"
 "http://www.w3.org/TR/2001/REC-SVG-20010904/DTD/svg10.dtd">
<svg version="1.0" xmlns="http://www.w3.org/2000/svg"
 width="700.000000pt" height="700.000000pt" viewBox="0 0 700.000000 700.000000"
 preserveAspectRatio="xMidYMid meet">
<metadata>
Created by potrace 1.11, written by Peter Selinger 2001-2013
</metadata>
<g transform="translate(0.000000,700.000000) scale(0.100000,-0.100000)"
fill="#000000" stroke="none">
<path d="M3245 6994 c-22 -2 -83 -9 -135 -15 -944 -106 -1792 -583 -2381
-1339 -345 -443 -587 -993 -678 -1540 -41 -245 -46 -303 -46 -600 0 -297 5
-355 46 -600 195 -1169 1009 -2183 2120 -2640 292 -120 565 -190 939 -242 128
-17 652 -17 780 0 281 39 481 83 695 152 1059 345 1900 1186 2245 2245 69 214
113 414 152 695 8 60 13 202 13 390 0 297 -5 355 -46 600 -195 1169 -1009
2183 -2120 2640 -283 116 -551 187 -895 236 -104 14 -594 27 -689 18z m1930
-2398 c244 -43 462 -159 626 -333 291 -309 384 -759 239 -1154 -57 -154 -128
-266 -248 -391 -142 -147 -322 -253 -519 -305 -133 -35 -347 -43 -478 -18
-285 53 -529 203 -698 430 -169 227 -244 499 -216 779 50 500 420 900 916 990
103 19 278 19 378 2z"/>
</g>
</svg>
