<svg xmlns="http://www.w3.org/2000/svg">
    <symbol id="shop" viewBox="0 0 24 24">
        <path d="M7 18c-1.1 0-1.99.9-1.99 2S5.9 22 7 22s2-.9 2-2-.9-2-2-2zM1 2v2h2l3.6 7.59-1.35 2.45c-.16.28-.25.61-.25.96 0 1.1.9 2 2 2h12v-2H7.42c-.14 0-.25-.11-.25-.25l.03-.12.9-1.63h7.45c.75 0 1.41-.41 1.75-1.03l3.58-6.49c.08-.14.12-.31.12-.48 0-.55-.45-1-1-1H5.21l-.94-2H1zm16 16c-1.1 0-1.99.9-1.99 2s.89 2 1.99 2 2-.9 2-2-.9-2-2-2z"/>
        <path d="M0 0h24v24H0z" fill="none"/>
    </symbol>
    <symbol id="info" viewBox="0 0 24 24">
        <path d="M0 0h24v24H0z" fill="none"/>
        <path d="M12 2C6.48 2 2 6.48 2 12s4.48 10 10 10 10-4.48 10-10S17.52 2 12 2zm1 15h-2v-6h2v6zm0-8h-2V7h2v2z"/>
    </symbol>
    <symbol id="add" viewBox="0 0 24 24">
        <path d="M0 0h24v24H0zm18.31 6l-2.76 5z" fill="none"/>
        <path d="M11 9h2V6h3V4h-3V1h-2v3H8v2h3v3zm-4 9c-1.1 0-1.99.9-1.99 2S5.9 22 7 22s2-.9 2-2-.9-2-2-2zm10 0c-1.1 0-1.99.9-1.99 2s.89 2 1.99 2 2-.9 2-2-.9-2-2-2zm-9.83-3.25l.03-.12.9-1.63h7.45c.75 0 1.41-.41 1.75-1.03l3.86-7.01L19.42 4h-.01l-1.1 2-2.76 5H8.53l-.13-.27L6.16 6l-.95-2-.94-2H1v2h2l3.6 7.59-1.35 2.45c-.16.28-.25.61-.25.96 0 1.1.9 2 2 2h12v-2H7.42c-.13 0-.25-.11-.25-.25z"/>
    </symbol>
    <symbol id="back" viewBox="0 0 24 24">
        <path d="M0 0h24v24H0z" fill="none"/>
        <path d="M20 11H7.83l5.59-5.59L12 4l-8 8 8 8 1.41-1.41L7.83 13H20v-2z"/>
    </symbol>
</svg>